<svg width="105" height="73" viewBox="0 0 105 73" fill="none" xmlns="http://www.w3.org/2000/svg">
<mask id="mask0_60_14413" style="mask-type:alpha" maskUnits="userSpaceOnUse" x="27" y="0" width="78" height="58">
<path fill-rule="evenodd" clip-rule="evenodd" d="M27.3584 15.4519C35.6835 13.5104 44.8274 11.3825 54.8866 9.03854C66.0176 6.44544 78.4206 3.55508 92.2986 0.323849C94.0242 8.62248 95.8454 17.3677 97.7657 26.5952L98.9367 32.2231C96.6686 31.6376 94.1589 31.9649 92.0073 32.8692C88.8859 31.6752 85.45 30.8842 82.1819 30.3403L81.9362 30.2992C81.9516 30.2084 81.967 30.1177 81.9818 30.027C82.0665 29.5232 82.1448 29.0184 82.2161 28.5131C82.3622 27.4845 82.5336 26.299 82.5336 25.2623C82.5336 24.543 82.3216 23.8683 81.8347 23.3329C81.1036 22.5294 80.0471 22.3394 79.0323 22.1905C76.2135 21.778 73.2154 21.6491 70.3679 21.5449C66.5045 21.4035 62.6391 21.3674 58.7737 21.381C55.7023 21.3629 52.2223 21.5158 49.2197 22.2968C48.3916 22.5123 47.1226 22.9084 46.3955 23.4392C44.9403 24.4117 42.6857 28.3672 41.3667 30.8415C38.8822 31.1258 36.4344 31.5408 34.051 32.1022C32.7711 32.404 31.5031 32.7609 30.251 33.1645C29.5764 33.1269 28.9052 33.1003 28.249 33.0807C27.9523 33.0717 27.6556 33.0652 27.3584 33.0602V15.4519ZM104.234 57.6723V57.6729V57.6723Z" fill="#CC4645"/>
</mask>
<g mask="url(#mask0_60_14413)">
<rect x="34.2324" y="27.7407" width="13.8819" height="14.0492" fill="#171213"/>
<rect x="61.9961" y="27.7407" width="13.8819" height="14.0492" fill="#171213"/>
<rect x="89.7598" y="27.7407" width="13.8819" height="14.0492" fill="#171213"/>
<rect x="20.3506" y="27.7407" width="13.8819" height="14.0492" fill="#F6D738"/>
<rect x="48.1143" y="27.7407" width="13.8819" height="14.0492" fill="#F6D738"/>
<rect x="75.8779" y="27.7407" width="13.8819" height="14.0492" fill="#F6D738"/>
<rect x="103.643" y="27.7407" width="13.8819" height="14.0492" fill="#F6D738"/>
<rect x="34.2324" y="13.6917" width="13.8819" height="14.0492" fill="#F5D738"/>
<rect x="61.9961" y="13.6917" width="13.8819" height="14.0492" fill="#F5D738"/>
<rect x="89.7598" y="13.6917" width="13.8819" height="14.0492" fill="#F5D738"/>
<rect x="20.3506" y="13.6917" width="13.8819" height="14.0492" fill="#171213"/>
<rect x="48.1143" y="13.6917" width="13.8819" height="14.0492" fill="#171213"/>
<rect x="75.8779" y="13.6917" width="13.8819" height="14.0492" fill="#171213"/>
<rect x="103.643" y="13.6917" width="13.8819" height="14.0492" fill="#171213"/>
<rect x="34.2324" y="-0.35791" width="13.8819" height="14.0492" fill="#171213"/>
<rect x="61.9961" y="-0.35791" width="13.8819" height="14.0492" fill="#171213"/>
<rect x="89.7598" y="-0.35791" width="13.8819" height="14.0492" fill="#171213"/>
<rect x="20.3506" y="-0.35791" width="13.8819" height="14.0492" fill="#F6D738"/>
<rect x="48.1143" y="-0.35791" width="13.8819" height="14.0492" fill="#F6D738"/>
<rect x="75.8779" y="-0.35791" width="13.8819" height="14.0492" fill="#F6D738"/>
<rect x="103.643" y="-0.35791" width="13.8819" height="14.0492" fill="#F6D738"/>
</g>
<path fill-rule="evenodd" clip-rule="evenodd" d="M8.8547 63.7689C6.41432 64.2777 4.36573 69.4107 9.96418 71.0088C15.5621 72.6064 55.7454 71.6189 55.7454 71.6189C55.7454 71.6189 80.7638 58.1621 91.3703 59.4283C101.977 60.694 93.1485 54.1569 93.1485 54.1569C93.1485 54.1569 84.6678 46.6277 80.0144 46.6754C75.3605 46.723 26.077 56.7716 8.8547 63.7689Z" fill="#171213"/>
<path fill-rule="evenodd" clip-rule="evenodd" d="M1.91436 49.5812C1.77518 49.4579 1.62659 49.3632 1.48493 49.2419C0.587928 48.4719 0 47.1862 0 45.7289C0 43.7148 1.12434 42.027 2.63602 41.5794C2.70338 41.5548 2.77322 41.5313 2.84504 41.5102C2.84504 41.5102 7.78919 36.8022 16.5086 35.2954C25.2279 33.7891 33.4154 34.9189 33.4154 34.9189C33.4154 34.9189 36.2064 33.6006 41.9485 32.8471C41.9485 32.8471 45.6702 25.5832 47.2121 24.6418C47.2121 24.6418 49.6312 22.7855 58.7756 22.8392C58.7756 22.8392 72.6199 22.7249 78.8256 23.6342C80.0624 23.8152 81.0926 24.0152 81.0926 25.2628C81.0926 26.1822 80.8226 28.2289 80.5611 29.7818C80.3159 31.2416 80.0406 32.6983 79.7825 34.1605C80.1317 33.7885 80.6265 33.556 81.1753 33.556C82.2328 33.556 83.0902 34.4171 83.0902 35.4799C83.0902 35.9365 82.9317 36.3556 82.6672 36.6854L90.0408 36.7305C88.2656 33.9063 84.0501 32.4546 81.9475 31.7794C84.2507 32.1624 88.4509 32.997 92.0448 34.4482C97.0553 32.0246 103.661 33.567 103.409 41.026C103.409 41.026 104.924 43.9048 104.1 48.882C104.1 48.882 104.255 52.7999 103.259 56.0507C102.458 58.6634 101.882 59.7316 99.0906 60.0063C97.4516 60.1677 94.923 60.2624 92.3554 59.7647C90.2686 59.3601 89.6188 57.6302 89.1468 55.5474L72.6521 59.8855C72.4341 61.5161 72.4584 63.1037 71.336 63.3964C71.336 63.3964 70.1666 71.0504 63.6271 72.2876C63.6271 72.2876 58.6294 72.638 54.0835 71.1577C54.0835 71.1577 50.867 69.7862 49.5381 64.2977L38.7989 64.1092C38.884 65.0942 38.6998 65.6482 37.1881 65.6837L35.5288 65.7238C35.5288 65.7238 27.7927 68.5235 17.2075 65.9128C12.3901 66.6928 6.05265 64.7228 4.82726 59.3977C2.78956 58.2684 2.84157 57.0267 2.45127 54.9399C2.13031 53.2255 1.93764 51.446 1.91436 49.5812Z" fill="#171213"/>
<path fill-rule="evenodd" clip-rule="evenodd" d="M63.0732 42.8381C71.6584 38.8931 73.7625 53.4321 72.7803 58.3787L89.7158 53.9243C84.6716 54.8296 79.6274 55.2497 74.5837 56.1545C74.5837 49.4123 72.0437 38.3051 63.0732 42.8381Z" fill="#F6D738"/>
<path fill-rule="evenodd" clip-rule="evenodd" d="M79.2083 31.3013C79.4926 30.0787 79.8913 28.2039 80.082 26.7347C80.339 24.7622 80.2613 24.6684 78.5272 24.3847C77.6584 24.2423 76.7936 24.1511 75.8907 24.0764C74.0254 23.921 72.1506 23.8298 70.2803 23.7616C70.0109 23.7516 69.7415 23.7421 69.472 23.733L67.5755 26.3061L67.2248 26.7818H65.0083L65.731 25.876L67.4858 23.6769C67.2109 23.6704 66.936 23.6644 66.6616 23.6589L64.9796 25.7016L64.0905 26.7818H61.8314L63.1638 25.2765L64.6269 23.6243C63.8859 23.6142 63.1455 23.6072 62.405 23.6022C61.1935 23.5942 59.9814 23.6067 58.7714 23.5992C56.9155 23.5882 55.0427 23.6493 53.1962 23.8498C52.0491 23.9747 50.8841 24.1541 49.7657 24.4454C49.1961 24.5937 48.5998 24.7782 48.0649 25.0298C47.9603 25.079 47.7444 25.1867 47.6656 25.2474L47.6339 25.2715L47.5998 25.2925C46.9098 25.7141 45.461 28.1107 45.0192 28.8516C44.2985 30.0612 43.5997 31.3108 42.9424 32.565C44.5883 32.2592 50.4527 31.2858 57.7268 31.4176L61.237 27.4525H63.5382L60.2028 31.5048C60.5307 31.5224 60.8611 31.5414 61.193 31.564L64.4734 27.4525H66.7305L63.5516 31.7665C65.0851 31.9264 66.6458 32.146 68.211 32.4397C68.211 32.4397 74.006 33.4889 78.1265 35.4529C78.6743 33.5626 78.8397 32.8863 79.2083 31.3013Z" fill="#E8DCB4"/>
<path fill-rule="evenodd" clip-rule="evenodd" d="M6.84377 58.4249C5.84028 57.2143 5.32863 53.8513 5.32863 53.8513C5.98145 56.1561 6.94928 58.3006 9.05681 59.5287C13.2208 61.9559 22.1542 62.8126 25.6912 62.38C29.4729 61.9173 29.8527 59.7518 29.8527 59.7518C29.983 60.3328 30.1376 60.805 30.3094 61.1854C31.3521 63.4958 33.6196 62.8086 33.202 60.431C32.7201 57.6875 32.0608 54.6889 31.4967 51.9379C30.5888 48.2229 29.2911 48.2856 29.1989 51.7278C29.1702 52.8151 29.2534 53.8513 29.2534 53.8513C26.8319 48.1462 6.01661 45.1937 5.40838 52.0487C5.40838 52.0487 4.10572 47.3407 3.46777 47.9863C2.82981 48.632 3.94623 55.1425 4.38458 57.1607C4.64758 58.3693 6.50498 58.7181 6.84377 58.4249ZM15.9391 49.5308L17.263 58.1342C17.5399 59.9347 17.4379 60.4922 15.3531 60.1242C13.5854 59.8119 11.5641 59.3813 10.0365 58.4931C6.41088 56.3837 4.7937 50.6331 10.6968 49.6556C12.364 49.3794 14.1847 49.3764 15.9391 49.5308ZM22.2097 60.9824C20.3156 60.9283 19.4563 60.3608 19.1903 59.2846C18.9243 58.2083 17.4334 49.7022 17.4329 49.7007C17.634 49.7283 17.8331 49.7578 18.0298 49.7889C20.2542 50.1413 22.6193 50.7554 24.6679 51.7128C28.4337 53.4718 30.0568 57.6063 28.2361 59.7488C26.8329 61.399 24.1533 61.1147 22.2097 60.9824Z" fill="#F6D738"/>
<path fill-rule="evenodd" clip-rule="evenodd" d="M41.6715 43.0908C43.9969 43.0908 45.8826 45.319 45.8826 48.068C45.8826 50.8165 43.9969 53.0452 41.6715 53.0452C40.2237 53.0452 38.9468 52.1815 38.1885 50.8661C38.869 51.805 39.879 52.3995 41.0068 52.3995C43.0559 52.3995 44.7171 50.436 44.7171 48.0139C44.7171 45.5917 43.0559 43.6287 41.0068 43.6287C40.0627 43.6287 39.2014 44.0458 38.5461 44.732C39.3168 43.7239 40.4317 43.0908 41.6715 43.0908Z" fill="#E8DCB4"/>
<path fill-rule="evenodd" clip-rule="evenodd" d="M37.9717 52.5729C38.5423 52.5729 39.0089 53.0451 39.0089 53.622V59.1105C39.0089 59.688 38.5423 60.1597 37.9717 60.1597C37.4016 60.1597 36.9355 59.688 36.9355 59.1105V53.622C36.9355 53.0451 37.4016 52.5729 37.9717 52.5729Z" fill="#F6D738"/>
<path fill-rule="evenodd" clip-rule="evenodd" d="M42.0724 54.9943C43.1041 54.9943 43.9402 55.8405 43.9402 56.8841C43.9402 57.9283 43.1041 58.7739 42.0724 58.7739C41.0412 58.7739 40.2051 57.9283 40.2051 56.8841C40.2051 55.8405 41.0412 54.9943 42.0724 54.9943Z" fill="#F6D738"/>
<path fill-rule="evenodd" clip-rule="evenodd" d="M3.75826 41.8922C5.52403 41.8922 6.95497 43.5835 6.95497 45.6708C6.95497 46.9601 6.40864 48.099 5.57405 48.7808C5.47301 48.5271 5.35661 48.2629 5.22189 48.0113C5.74543 47.4068 6.07035 46.5631 6.07035 45.6297C6.07035 43.7911 4.8093 42.3008 3.25354 42.3008C2.53683 42.3008 1.88303 42.6171 1.38574 43.1379C1.9707 42.373 2.81718 41.8922 3.75826 41.8922Z" fill="#E8DCB4"/>
<path fill-rule="evenodd" clip-rule="evenodd" d="M64.8938 43.714C68.6868 43.9205 71.362 49.9519 70.8706 57.1838C70.3793 64.4167 66.9062 70.1117 63.1141 69.9047C59.3216 69.6977 56.6459 63.6668 57.1373 56.4339C57.6286 49.202 61.1017 43.5065 64.8938 43.714ZM58.6757 56.5412C58.5504 58.3874 58.6331 60.39 59.0234 62.2793C59.0234 62.2793 57.6628 51.4482 63.4846 49.1609C63.4846 49.1609 60.8734 50.6116 60.0016 55.2429C60.3379 54.4007 60.7634 53.5952 61.2879 52.8718C61.8729 52.0668 63.0864 50.7459 64.3366 50.8036C64.4173 50.8071 64.4975 50.8166 64.5763 50.8316C65.7729 51.0582 66.6888 52.4883 67.1142 53.3721C68.0796 55.3802 68.3213 57.8009 68.1474 59.9508C68.1192 60.2927 68.0801 60.6411 68.0286 60.9925C68.6967 58.628 68.8007 56.6941 68.8007 56.6941C68.5883 65.4649 64.7521 67.8926 64.7521 67.8926C65.6674 67.3191 66.4302 66.315 66.9181 65.515C68.405 63.0758 69.14 59.9102 69.3322 57.0775C69.5615 53.7095 68.2822 47.3112 65.4599 46.5457C60.752 45.269 58.8991 53.2543 58.6757 56.5412Z" fill="#E8DCB4"/>
<path fill-rule="evenodd" clip-rule="evenodd" d="M47.6454 48.7C52.8614 39.6514 67.5275 36.0914 77.9284 36.6708C66.7677 34.0191 52.3607 34.8397 42.3896 41.3252C43.9915 41.5317 45.3149 42.422 46.2362 43.6616C51.0332 39.5963 58.0483 38.4123 58.0483 38.4123C51.1541 40.3577 47.9054 43.3985 46.8301 44.612C47.3739 45.6592 47.6726 46.8588 47.6726 48.0678C47.6726 48.2789 47.6632 48.4899 47.6454 48.7Z" fill="#F6D738"/>
<path fill-rule="evenodd" clip-rule="evenodd" d="M9.55371 46.4881C15.1517 41.547 24.6264 35.821 34.378 33.5231C47.3615 30.4633 61.0295 32.1576 69.0495 33.7647C47.1406 34.1813 38.9853 39.2898 26.6383 48.981C24.7611 48.024 22.611 47.3603 20.7219 46.9277C21.9567 45.7748 24.3203 43.8364 27.9514 41.9295C27.9514 41.9295 22.4857 44.1878 19.2939 46.634C19.0319 46.5859 18.7788 46.5427 18.5376 46.5047C16.2042 46.1352 12.6405 45.86 9.55371 46.4881Z" fill="#F6D738"/>
<path fill-rule="evenodd" clip-rule="evenodd" d="M101.217 41.6853C102.758 41.8126 103.844 45.5155 103.645 49.9563C103.445 54.3971 102.035 57.8935 100.494 57.7672C98.9537 57.6399 97.867 53.9364 98.0666 49.4956C98.2662 45.0548 99.6768 41.5579 101.217 41.6853ZM98.6917 49.5613C98.6402 50.6952 98.6743 51.9248 98.8328 53.0853C98.8328 53.0853 98.2261 46.9131 100.645 45.0298C100.645 45.0298 99.6273 45.9536 99.2301 48.7648C99.3668 48.2469 99.5396 47.7527 99.7526 47.3086C99.9904 46.8138 100.483 46.0032 100.991 46.0383C101.024 46.0408 101.056 46.0464 101.088 46.0559C101.574 46.1952 101.946 47.073 102.119 47.6153C102.511 48.8485 102.61 50.3348 102.538 51.6546C102.527 51.8652 102.511 52.0787 102.491 52.2948C102.762 50.8431 102.804 49.655 102.804 49.655C102.718 55.0402 101.16 56.5315 101.16 56.5315C101.531 56.1796 101.841 55.5626 102.039 55.0713C102.643 53.5735 102.942 51.6301 103.02 49.8906C103.113 47.8229 102.594 43.8939 101.447 43.4242C99.5352 42.6402 98.7818 47.5432 98.6917 49.5613Z" fill="#E8DCB4"/>
<path fill-rule="evenodd" clip-rule="evenodd" d="M81.1755 33.958C82.012 33.958 82.6906 34.6392 82.6906 35.4799C82.6906 36.32 82.012 37.0012 81.1755 37.0012C80.483 37.0012 79.8985 36.5335 79.7188 35.8954C79.9134 36.3711 80.379 36.707 80.9233 36.707C81.6425 36.707 82.2255 36.121 82.2255 35.3986C82.2255 34.6768 81.6425 34.0913 80.9233 34.0913C80.6673 34.0913 80.4285 34.1655 80.2264 34.2938C80.4865 34.0838 80.8169 33.958 81.1755 33.958Z" fill="#E8DCB4"/>
<path fill-rule="evenodd" clip-rule="evenodd" d="M25.4968 62.9068C25.4968 62.9068 27.8629 63.5796 27.4241 65.732C27.4241 65.732 17.9612 65.7992 16.14 64.5485C14.3192 63.2973 14.3722 61.791 14.3722 61.791C14.3722 61.791 15.1563 64.1315 17.8146 64.6022C20.4729 65.0729 26.8133 65.2212 26.8133 65.2212C26.8133 65.2212 27.2651 64.0773 25.4968 62.9068Z" fill="#E8DCB4"/>
<path fill-rule="evenodd" clip-rule="evenodd" d="M91.3701 48.5405C91.3701 48.5405 93.0715 46.5229 95.8631 46.6307C95.7566 45.2582 98.5481 38.2904 102.456 40.1737C98.5243 37.4317 95.9086 42.8445 95.0121 45.4467C95.0121 45.4467 92.6198 45.8502 91.3701 48.5405Z" fill="#F6D738"/>
<path fill-rule="evenodd" clip-rule="evenodd" d="M53.7383 57.034C53.6031 58.8431 53.1434 61.8187 51.8477 63.6814C49.9576 66.3994 43.7975 65.3386 40.5527 65.3206C43.955 65.072 49.547 65.7667 51.3653 62.8293C52.4807 61.0267 53.1043 58.3849 53.7383 57.034Z" fill="#E8DCB4"/>
<path d="M81.9436 46.1541L82.2131 42.6077L78.9785 43.1533L78.709 46.6997L81.9436 46.1541Z" fill="#F6D738"/>
<path d="M88.4123 45.0632L88.6819 41.5168L85.4473 42.0624L85.1777 45.6088L88.4123 45.0632Z" fill="#F6D738"/>
<path d="M84.9084 49.1553L85.178 45.6089L81.9434 46.1545L81.6738 49.7009L84.9084 49.1553Z" fill="#F6D738"/>
</svg>
